<svg width="21" height="20" viewBox="0 0 21 20" fill="none" xmlns="http://www.w3.org/2000/svg">
<path d="M13.1831 19.9688C13.6377 19.9688 14.1201 19.7739 14.5098 19.5605L19.1113 16.9536C19.835 16.5547 20.1318 16.0259 20.1318 15.2559V2.21191C20.1318 1.34912 19.5845 0.811035 18.7124 0.811035C18.3506 0.811035 18.0352 0.950195 17.6177 1.19141L12.877 3.84473L8.229 0.959473C7.83008 0.708984 7.40332 0.532715 6.95801 0.532715C6.49414 0.532715 6.03027 0.727539 5.61279 0.959473L1.02051 3.55713C0.296875 3.95605 0 4.48486 0 5.26416V18.2896C0 19.1523 0.547363 19.6997 1.41943 19.6997C1.78125 19.6997 2.09668 19.5605 2.52344 19.3193L7.13428 16.7959L11.8472 19.5327C12.2461 19.7739 12.7378 19.9688 13.1831 19.9688ZM2.13379 17.167C2.00391 17.167 1.92969 17.0649 1.92969 16.9165V5.83936C1.92969 5.54248 2.03174 5.38477 2.30078 5.21777L5.76123 3.17676C5.86328 3.12109 5.94678 3.07471 6.03955 3.01904V15.0518L2.32861 17.1021C2.25439 17.1484 2.18018 17.167 2.13379 17.167ZM12.1162 17.3154C12.0049 17.2505 11.8843 17.1855 11.7637 17.1206L8.01562 14.9126V3.20459C8.11768 3.25098 8.21973 3.31592 8.3125 3.37158L12.1162 5.74658V17.3154ZM14.0923 17.4917V5.44971L17.8125 3.39941C17.8867 3.3623 17.9517 3.34375 18.0073 3.34375C18.1372 3.34375 18.2021 3.4458 18.2021 3.59424V14.6807C18.2021 14.9775 18.1001 15.1353 17.8403 15.293L14.519 17.2598C14.3706 17.3433 14.2314 17.4175 14.0923 17.4917Z" fill="white"/>
</svg>
