<svg width="20" height="23" viewBox="0 0 20 23" fill="none" xmlns="http://www.w3.org/2000/svg">
<path d="M16.9531 19.7168L17.5977 5.76172H18.6035C19.1602 5.76172 19.5801 5.3418 19.5801 4.78516C19.5801 4.23828 19.1602 3.81836 18.6035 3.81836H14.3555V2.60742C14.3555 1.02539 13.252 0 11.4648 0H8.10547C6.31836 0 5.21484 1.02539 5.21484 2.60742V3.81836H0.986328C0.429688 3.81836 0 4.23828 0 4.78516C0 5.3418 0.429688 5.76172 0.986328 5.76172H1.98242L2.63672 19.7266C2.71484 21.3184 3.70117 22.2266 5.30273 22.2266H14.2969C15.8789 22.2266 16.875 21.3086 16.9531 19.7168ZM7.26562 2.68555C7.26562 2.1582 7.65625 1.78711 8.22266 1.78711H11.3574C11.9238 1.78711 12.3145 2.1582 12.3145 2.68555L12.3242 3.81836H7.25586L7.26562 2.68555ZM5.54688 20.2637C5.01953 20.2637 4.6582 19.8828 4.62891 19.3066L3.99414 5.76172H15.5664L14.9512 19.3066C14.9316 19.8926 14.5703 20.2637 14.0332 20.2637H5.54688ZM12.6562 18.7402C13.0469 18.7402 13.3496 18.4082 13.3594 17.959L13.6523 8.13477C13.6719 7.68555 13.3594 7.34375 12.9688 7.34375C12.5781 7.34375 12.2656 7.69531 12.2559 8.125L11.9629 17.9492C11.9434 18.3887 12.2559 18.7402 12.6562 18.7402ZM6.92383 18.7402C7.33398 18.7402 7.63672 18.3887 7.62695 17.9492L7.33398 8.125C7.31445 7.69531 7.00195 7.34375 6.62109 7.34375C6.2207 7.34375 5.91797 7.68555 5.9375 8.13477L6.23047 17.959C6.24023 18.4082 6.5332 18.7402 6.92383 18.7402ZM9.79492 18.7402C10.1758 18.7402 10.498 18.3887 10.498 17.959V8.125C10.498 7.69531 10.1855 7.34375 9.79492 7.34375C9.4043 7.34375 9.08203 7.69531 9.08203 8.125V17.959C9.08203 18.3887 9.4043 18.7402 9.79492 18.7402Z" fill="white"/>
</svg>
