<svg width="20" height="24" viewBox="0 0 20 24" fill="none" xmlns="http://www.w3.org/2000/svg">
<path d="M16.9531 20.6641L17.5977 6.70898H18.6035C19.1602 6.70898 19.5801 6.28906 19.5801 5.73242C19.5801 5.18555 19.1602 4.76562 18.6035 4.76562H14.3555V3.55469C14.3555 1.97266 13.252 0.947266 11.4648 0.947266H8.10547C6.31836 0.947266 5.21484 1.97266 5.21484 3.55469V4.76562H0.986328C0.429688 4.76562 0 5.18555 0 5.73242C0 6.28906 0.429688 6.70898 0.986328 6.70898H1.98242L2.63672 20.6738C2.71484 22.2656 3.70117 23.1738 5.30273 23.1738H14.2969C15.8789 23.1738 16.875 22.2559 16.9531 20.6641ZM7.26562 3.63281C7.26562 3.10547 7.65625 2.73438 8.22266 2.73438H11.3574C11.9238 2.73438 12.3145 3.10547 12.3145 3.63281L12.3242 4.76562H7.25586L7.26562 3.63281ZM5.54688 21.2109C5.01953 21.2109 4.6582 20.8301 4.62891 20.2539L3.99414 6.70898H15.5664L14.9512 20.2539C14.9316 20.8398 14.5703 21.2109 14.0332 21.2109H5.54688ZM12.6562 19.6875C13.0469 19.6875 13.3496 19.3555 13.3594 18.9062L13.6523 9.08203C13.6719 8.63281 13.3594 8.29102 12.9688 8.29102C12.5781 8.29102 12.2656 8.64258 12.2559 9.07227L11.9629 18.8965C11.9434 19.3359 12.2559 19.6875 12.6562 19.6875ZM6.92383 19.6875C7.33398 19.6875 7.63672 19.3359 7.62695 18.8965L7.33398 9.07227C7.31445 8.64258 7.00195 8.29102 6.62109 8.29102C6.2207 8.29102 5.91797 8.63281 5.9375 9.08203L6.23047 18.9062C6.24023 19.3555 6.5332 19.6875 6.92383 19.6875ZM9.79492 19.6875C10.1758 19.6875 10.498 19.3359 10.498 18.9062V9.07227C10.498 8.64258 10.1855 8.29102 9.79492 8.29102C9.4043 8.29102 9.08203 8.64258 9.08203 9.07227V18.9062C9.08203 19.3359 9.4043 19.6875 9.79492 19.6875Z" fill="white"/>
</svg>
