<svg width="1920" height="10804" viewBox="0 0 1440 1024" fill="none" xmlns="http://www.w3.org/2000/svg">
<g clip-path="url(#clip0)">
<rect width="1440" height="1024" fill="white"/>
<path d="M-17 735.609L1493 241V636.164L1476.88 1024H-17V735.609Z" fill="#8B54FF"/>
<rect x="102.164" y="598.164" width="206.951" height="206.951" transform="rotate(-45 102.164 598.164)" fill="#D6C2FF"/>
<rect x="84.0045" y="274.332" width="116.435" height="116.435" transform="rotate(-45 84.0045 274.332)" fill="#D6C2FF"/>
<rect x="306" y="389.666" width="88.623" height="88.623" transform="rotate(-45 306 389.666)" fill="#D6C2FF"/>
<rect x="272.334" y="216.666" width="55.6236" height="55.6236" transform="rotate(-45 272.334 216.666)" fill="#FFF6DF"/>
<rect x="127" y="525.332" width="55.6236" height="55.6236" transform="rotate(-45 127 525.332)" fill="#FFF6DF"/>
<rect x="899.666" y="776.666" width="156.505" height="156.505" transform="rotate(-45 899.666 776.666)" fill="#FFF6DF"/>
<rect x="1109" y="255.999" width="118.792" height="118.792" transform="rotate(-45 1109 255.999)" fill="#FFF6DF"/>
<rect x="763" y="199.999" width="57.9804" height="57.9804" transform="rotate(-45 763 199.999)" fill="#FFF6DF"/>
<rect x="715.667" y="844.333" width="121.621" height="121.621" transform="rotate(-45 715.667 844.333)" fill="#D6C2FF"/>
<rect x="1006" y="448.001" width="292.743" height="292.743" transform="rotate(-45 1006 448.001)" fill="#D6C2FF"/>
<rect x="928" y="122.5" width="111.015" height="111.015" transform="rotate(-45 928 122.5)" fill="#D6C2FF"/>
<rect x="1236.75" y="148.75" width="77.4284" height="77.4284" transform="rotate(-45 1236.75 148.75)" fill="#D6C2FF"/>
</g>
<defs>
<clipPath id="clip0">
<rect width="1440" height="1024" fill="white"/>
</clipPath>
</defs>
</svg>
